<?xml version="1.0" encoding="UTF-8" standalone="no"?>
<!-- Created with Inkscape (http://www.inkscape.org/) -->

<svg
   xmlns:dc="http://purl.org/dc/elements/1.1/"
   xmlns:cc="http://creativecommons.org/ns#"
   xmlns:rdf="http://www.w3.org/1999/02/22-rdf-syntax-ns#"
   xmlns:svg="http://www.w3.org/2000/svg"
   xmlns="http://www.w3.org/2000/svg"
   xmlns:sodipodi="http://sodipodi.sourceforge.net/DTD/sodipodi-0.dtd"
   xmlns:inkscape="http://www.inkscape.org/namespaces/inkscape"
   width="210mm"
   height="297mm"
   id="svg2"
   version="1.1"
   inkscape:version="0.48.5 r10040"
   sodipodi:docname="ilucolor.svg">
  <defs
     id="defs4" />
  <sodipodi:namedview
     id="base"
     pagecolor="#ffffff"
     bordercolor="#666666"
     borderopacity="1.0"
     inkscape:pageopacity="0.0"
     inkscape:pageshadow="2"
     inkscape:zoom="11.051923"
     inkscape:cx="430"
     inkscape:cy="440.1914"
     inkscape:document-units="px"
     inkscape:current-layer="layer1"
     showgrid="false"
     inkscape:window-width="1920"
     inkscape:window-height="1018"
     inkscape:window-x="-8"
     inkscape:window-y="-8"
     inkscape:window-maximized="1" />
  <metadata
     id="metadata7">
    <rdf:RDF>
      <cc:Work
         rdf:about="">
        <dc:format>image/svg+xml</dc:format>
        <dc:type
           rdf:resource="http://purl.org/dc/dcmitype/StillImage" />
        <dc:title></dc:title>
      </cc:Work>
    </rdf:RDF>
  </metadata>
  <g
     inkscape:label="レイヤー 1"
     inkscape:groupmode="layer"
     id="layer1">
    <g
       id="g2991"
       transform="translate(391.92177,588.1662)">
      <path
         sodipodi:nodetypes="ccccccccccccccccccccccccccccccc"
         inkscape:connector-curvature="0"
         id="path3000"
         d="M 4.0839821,38.939202 C 2.88486,36.091492 4.4135912,33.099492 6.4119508,31.101978 6.7189495,28.806981 5.0424861,26.363521 5.461884,23.875852 c 0.3555631,-2.726139 1.8023488,-5.393065 3.7108339,-7.373364 2.8080701,-3.071013 6.6230301,-5.023464 10.5901161,-6.13008 3.205105,-0.5627975 6.492271,-0.281626 9.665537,0.177819 3.92255,-2.9783071 8.37136,-5.8689179 13.428528,-6.3251175 3.434947,-0.1286144 7.083884,0.7341589 9.664771,3.090892 -1.883041,1.4120949 -5.604637,2.195932 -7.908785,3.9177085 -1.599451,0.829451 -5.523451,3.600087 -2.30072,4.841002 1.996514,2.067196 3.926255,4.188137 5.854333,6.321354 2.75232,3.166764 5.266507,6.804245 5.870159,11.043325 0.648929,3.971588 -0.30295,7.942735 -1.613222,11.661636 1.300217,1.777957 4.776565,3.099489 5.385994,5.684487 0.841099,2.82177 0.341938,6.344386 -1.346375,8.94411 -0.5342,1.151053 -1.740292,2.707809 -1.328888,0.405499 0.211957,-2.572312 -1.906171,-4.633734 -3.748972,-6.136666 -2.409717,-1.990895 -5.868959,-1.91605 -8.744091,-1.221797 -1.787325,0.525793 -3.458773,1.592194 -4.3181,3.20778 -1.196008,-3.932274 -0.285262,-8.84996 3.445274,-11.104674 1.772969,-1.703807 5.641929,-0.538928 6.647323,-2.261195 -1.313296,-3.23784 -2.990644,-6.463999 -5.660491,-8.801895 -1.782265,-1.849632 -4.147092,-3.347464 -6.828948,-3.048961 -2.0431,-0.05019 -4.464222,0.08543 -3.086918,2.543458 0.965691,2.977504 3.723826,4.307816 6.161872,5.885928 1.744337,1.628459 -3.039487,1.845482 -4.252731,1.79704 -2.745671,-0.260253 -6.069082,-1.464876 -7.632688,-3.520881 -1.503438,-1.729289 -1.753624,-5.944666 -4.356078,-5.727702 -2.742652,-0.09053 -4.828945,1.804954 -7.057808,3.08287 -2.735894,1.579753 -5.382002,3.299517 -8.2143111,4.697389 -1.2321495,0.609161 -2.5405577,0.644755 -3.4035168,-0.586615 z"
         style="fill:none;stroke:#000000;stroke-width:1px;stroke-linecap:butt;stroke-linejoin:miter;stroke-opacity:1" />
      <path
         sodipodi:nodetypes="cc"
         inkscape:connector-curvature="0"
         id="path3001"
         d="M 7.3326038,38.753566 C 15.94462,21.813206 45.655255,19.882978 48.729585,42.280575"
         style="fill:none;stroke:#000000;stroke-width:1px;stroke-linecap:butt;stroke-linejoin:miter;stroke-opacity:1" />
    </g>
    <path
       style="fill:#5ebcff;fill-opacity:1"
       d="m 447.60712,647.59576 c -0.20435,-1.50463 -0.71723,-2.55796 -1.94639,-3.99743 -0.61898,-0.72489 -2.31837,-2.15418 -3.03849,-2.55556 -1.70582,-0.95079 -3.99091,-1.28194 -6.46489,-0.93687 -2.30309,0.32122 -3.83553,0.97227 -5.17444,2.1983 l -0.51003,0.46704 -0.0527,-0.38427 c -0.28711,-2.09496 -0.0158,-4.03825 0.79973,-5.72753 0.65979,-1.36672 1.35363,-2.17224 2.65447,-3.08172 1.06425,-0.74406 1.37101,-0.84622 3.22843,-1.07513 2.36652,-0.29165 3.05088,-0.54207 3.6313,-1.32879 0.13665,-0.18523 0.19236,-0.35582 0.15927,-0.48769 -0.0373,-0.14856 -0.004,-0.21774 0.125,-0.25864 0.174,-0.0552 0.17403,-0.0664 0.003,-1.02646 -0.47919,-2.68976 -1.41839,-5.25633 -2.65647,-7.25941 -2.64546,-4.28006 -6.83375,-7.16046 -11.98422,-8.24189 -2.81895,-0.59189 -5.84654,-0.66512 -8.77675,-0.21228 -7.27322,1.12399 -13.74961,5.10177 -17.52167,10.76175 -0.57016,0.85553 -1.34007,2.20753 -1.28541,2.25725 0.0176,0.016 0.16809,0.11099 0.33433,0.211 l 0.30227,0.18183 -0.52847,0.20515 c -0.98074,0.3807 -1.85386,0.2408 -2.30905,-0.36996 -0.45155,-0.60589 -0.56934,-2.18849 -0.24909,-3.34666 0.34108,-1.23353 1.00972,-2.39078 2.06315,-3.57082 l 0.48589,-0.54429 -0.0475,-1.08579 c -0.0394,-0.89964 -0.11985,-1.36499 -0.46927,-2.71446 -0.65069,-2.51292 -0.64256,-3.53377 0.0445,-5.5844 0.79346,-2.36832 2.26032,-4.41707 4.69277,-6.55437 2.03798,-1.79069 5.63278,-3.64639 8.475,-4.37495 1.65031,-0.42304 5.27976,-0.46333 8.1842,-0.0909 0.77135,0.0989 1.48776,0.18036 1.59202,0.18098 0.10425,6.3e-4 0.61321,-0.31134 1.13102,-0.69326 4.78423,-3.52862 8.87687,-5.37753 12.41522,-5.60875 0.91052,-0.0595 2.61866,0.0788 3.67935,0.29779 1.55642,0.32141 3.38233,1.07954 4.42513,1.83734 l 0.48653,0.35355 -0.5544,0.27987 c -0.30492,0.15392 -1.27712,0.58098 -2.16045,0.94902 -2.40702,1.00289 -2.86171,1.22411 -4.28325,2.08387 -1.60203,0.96894 -2.45764,1.61314 -3.15873,2.37826 -0.5508,0.60109 -0.91166,1.32997 -0.89808,1.81398 0.0172,0.61428 0.4452,1.23413 1.07337,1.55459 0.54105,0.27603 5.41777,5.50314 7.22025,7.73904 1.81909,2.25648 3.30224,4.76578 3.99431,6.75785 0.64908,1.86831 0.97661,4.47969 0.81982,6.53635 -0.14886,1.95252 -0.60818,4.1072 -1.39493,6.54359 -0.30122,0.93283 -0.39267,1.33285 -0.33095,1.44771 0.1576,0.29334 1.31462,1.33725 2.50023,2.25581 1.28934,0.99893 2.1472,1.84347 2.51125,2.47226 0.40467,0.69895 0.63193,1.78909 0.67904,3.25735 0.0705,2.19587 -0.35364,3.89525 -1.45228,5.81928 l -0.40373,0.70704 -0.0592,-0.4356 0,0 z"
       id="path3797"
       inkscape:connector-curvature="0" />
    <path
       style="fill:#5ebcff;fill-opacity:1"
       d=""
       id="path3799"
       inkscape:connector-curvature="0" />
    <path
       style="fill:#ffffff;fill-opacity:1"
       d="m 425.74735,628.46834 c -2.45514,-0.41815 -4.68618,-1.48294 -5.95972,-2.84436 -0.58016,-0.6202 -0.9047,-1.18868 -1.54882,-2.71299 -0.87514,-2.07105 -1.48328,-2.93827 -2.3372,-3.33287 -0.36073,-0.1667 -0.56546,-0.19314 -1.3725,-0.17727 -1.02686,0.0202 -1.5224,0.10878 -2.46645,0.44093 -0.83068,0.29225 -1.14118,0.45808 -2.91876,1.55878 -3.90981,2.42101 -8.80098,5.26543 -9.05425,5.26543 -0.0311,0 0.0754,-0.23412 0.23667,-0.52027 1.70589,-3.02774 4.77308,-6.07071 8.09373,-8.02984 3.08566,-1.8205 6.37285,-2.94884 10.0435,-3.4475 1.40065,-0.19027 4.35068,-0.21459 5.65512,-0.0466 5.83232,0.75106 10.4721,3.54878 13.21225,7.96681 0.83584,1.34764 2.04293,4.05927 1.96893,4.42303 -0.014,0.0688 -0.20555,-0.19459 -0.42568,-0.5853 -0.97077,-1.72301 -1.93011,-2.96882 -3.44,-4.46723 -1.49199,-1.48064 -2.47038,-2.22714 -3.66977,-2.79998 -1.24554,-0.59488 -1.92052,-0.75058 -3.34783,-0.77227 -2.34097,-0.0356 -3.62027,0.1955 -4.13444,0.7468 -0.60552,0.64923 -0.60356,1.26502 0.009,2.68848 0.54232,1.26115 0.93481,1.86436 1.76675,2.71532 0.74422,0.76122 1.67568,1.46586 3.23513,2.44732 1.29689,0.81622 1.46631,0.94916 1.35345,1.06202 -0.17755,0.17754 -1.46363,0.43924 -2.36518,0.48126 -0.52253,0.0244 -1.09257,0.0573 -1.26675,0.0732 -0.17418,0.0159 -0.74421,-0.0439 -1.26675,-0.1329 l 1e-5,0 z"
       id="path3801"
       inkscape:connector-curvature="0" />
    <path
       sodipodi:type="arc"
       style="fill:#000000;fill-opacity:1"
       id="path3803"
       sodipodi:cx="405.17834"
       sodipodi:cy="612.9364"
       sodipodi:rx="1.0857838"
       sodipodi:ry="1.1310248"
       d="m 406.26413,612.9364 a 1.0857838,1.1310248 0 1 1 -2.17157,0 1.0857838,1.1310248 0 1 1 2.17157,0 z"
       transform="translate(-1.0951801,1.54759)" />
  </g>
</svg>
