<?xml version="1.0" encoding="UTF-8" standalone="no"?>
<!-- Created with Inkscape (http://www.inkscape.org/) -->

<svg
   xmlns:dc="http://purl.org/dc/elements/1.1/"
   xmlns:cc="http://creativecommons.org/ns#"
   xmlns:rdf="http://www.w3.org/1999/02/22-rdf-syntax-ns#"
   xmlns:svg="http://www.w3.org/2000/svg"
   xmlns="http://www.w3.org/2000/svg"
   xmlns:sodipodi="http://sodipodi.sourceforge.net/DTD/sodipodi-0.dtd"
   xmlns:inkscape="http://www.inkscape.org/namespaces/inkscape"
   width="64px"
   height="64px"
   id="svg3027"
   version="1.1"
   inkscape:version="0.48.5 r10040"
   sodipodi:docname="moto2222nd.svg">
  <defs
     id="defs3029" />
  <sodipodi:namedview
     id="base"
     pagecolor="#ffffff"
     bordercolor="#666666"
     borderopacity="1.0"
     inkscape:pageopacity="0.0"
     inkscape:pageshadow="2"
     inkscape:zoom="5.7908695"
     inkscape:cx="101.9654"
     inkscape:cy="10.062392"
     inkscape:current-layer="layer1"
     showgrid="true"
     inkscape:document-units="px"
     inkscape:grid-bbox="true"
     inkscape:window-width="1920"
     inkscape:window-height="1018"
     inkscape:window-x="-8"
     inkscape:window-y="-8"
     inkscape:window-maximized="1" />
  <metadata
     id="metadata3032">
    <rdf:RDF>
      <cc:Work
         rdf:about="">
        <dc:format>image/svg+xml</dc:format>
        <dc:type
           rdf:resource="http://purl.org/dc/dcmitype/StillImage" />
        <dc:title />
      </cc:Work>
    </rdf:RDF>
  </metadata>
  <g
     id="layer1"
     inkscape:label="Layer 1"
     inkscape:groupmode="layer">
    <path
       style="fill:#000000"
       d="m 5.8333882,38.224904 c -0.01639,0.06095 -0.055784,0.11497 -0.067058,0.177069 -0.00976,0.05378 -0.0025,0.109391 4.63e-4,0.163966 0.00237,0.04363 0.013821,0.130346 0.013821,0.130346 C 6.2320948,38.439727 7.4501007,41.09045 2.5419734,38.302145 2.2565788,36.083526 4.6682528,38.976994 4.7629378,37.372498 4.6061702,33.62143 7.9861303,30.81855 6.988639,30.489605 5.5474646,27.5519 4.9056032,23.974329 6.4309121,21.819934 6.033746,18.708511 14.672951,11.315939 18.246095,11.840119 c 2.736434,-1.592748 9.816865,-2.1380239 11.921879,-1.782403 1.229288,0.812998 -0.756352,1.618348 -2.075012,1.380359 -4.233282,-1.106106 -15.651467,2.565159 -17.965152,6.737989 0,0 -3.354205,3.580598 -3.2444569,5.673366 -0.7754471,2.113656 -0.566473,5.315919 1.5620892,6.328483 1.0336578,-0.894805 -4.6756282,5.259936 -2.5483748,7.148131 0.1058157,0.12269 0.049615,0.07609 0.056629,0.119651 0.00638,0.03964 -0.00417,0.08348 -0.014751,0.11954 -0.010583,0.03606 -0.0337,0.06067 -0.045511,0.09464 -0.011811,0.03397 -0.03056,0.06833 -0.024281,0.108061 0.011811,0.07474 -0.00359,0.06747 0.019553,0.119086 0.042601,0.09502 -0.018995,0.117558 -0.030278,0.185996 0,0 -0.011715,0.102334 -0.02504,0.151886 z"
       id="path3091"
       inkscape:connector-curvature="0"
       sodipodi:nodetypes="sssccccccccccccszzssss" />
    <path
       style="fill:#000000"
       d="m 23.991399,29.93664 c 0.517691,0.240705 1.100255,0.325219 1.588922,0.631335 -0.03348,0.141828 -0.206605,0.150607 -0.294517,0.244042 -0.281894,0.18254 -0.563787,0.365081 -0.845681,0.547622 -0.492611,-0.310944 -1.067959,-0.43603 -1.608103,-0.635313 0.386461,-0.262559 0.772909,-0.525139 1.159379,-0.787686 z"
       id="path3093"
       inkscape:connector-curvature="0" />
    <path
       style="fill:#000000"
       d="m 21.500128,32.287851 c -1.217568,0.687016 -6.402349,3.035068 -7.630577,3.702699 -0.08422,0.05929 -3.649507,2.787592 -4.7267248,2.818922 -0.2748982,-0.172724 -0.1620763,-0.42295 -0.4369735,-0.595675 0.9652185,-0.451007 4.2601993,-2.666878 5.1715203,-3.214422 0.310246,-0.192362 6.667263,-3.254938 6.973047,-3.454319 0.319954,0.195947 0.329796,0.546789 0.649708,0.742795 z"
       id="path3095"
       inkscape:connector-curvature="0"
       sodipodi:nodetypes="ccccccc" />
    <path
       style="fill:#000000"
       d="m 56.189595,28.288909 c -1.160863,-0.07705 -2.375399,-0.449383 -3.49372,-0.292749 -0.247706,-0.27189 -0.498109,-0.989805 -0.580105,-1.642573 0.226356,-0.580627 0.69647,-0.126261 1.072436,0.0034 1.129974,0.652922 2.436111,2.81337 3.406708,5.729366 0.30414,1.136812 0.272763,2.38888 -0.04519,2.64301 -0.562841,0.940349 -1.413301,0.737509 -2.16396,0.891476 -0.201419,0.219841 -0.60414,-0.43095 -0.740854,-1.220676 -0.0057,-0.661022 0.265813,-0.692957 0.494021,-0.617482 0.767429,0.111772 1.540097,-0.03086 1.94587,-1.319964 0.132531,-0.522168 -0.119312,-1.783846 -0.452999,-2.211408 -0.97459,-1.728248 -1.976755,-2.427325 -2.830921,-2.482709 -0.153116,0.02208 -0.384434,-0.154121 -0.510674,-0.718879 -0.19671,-0.724533 0.03988,-1.053221 0.250227,-0.916929 0.256191,0.06718 0.521925,0.189529 0.760648,0.154227 0.703323,0.08747 1.405978,0.171032 2.110728,0.266749 0.299835,0.222932 0.533447,1.117976 0.7778,1.735137 z"
       id="path3097"
       inkscape:connector-curvature="0" />
    <path
       style="fill:#000000"
       d="m 33.65669,33.193659 c -0.02081,1.517096 0.07667,3.076307 0.662493,4.493365 0.578721,0.270813 1.497407,0.233272 1.764146,-0.44634 0.202728,-0.870064 -0.468777,-1.594604 -0.992838,-2.19678 -2.076292,-2.395492 -4.943253,-4.009446 -7.971965,-4.846784 -0.690304,0.185726 -1.274749,-0.885427 -0.686249,-1.335245 0.671824,-0.294716 1.323201,0.199067 1.877435,0.528178 2.120989,1.158393 4.600508,1.71568 7.005523,1.385796 0.655327,-0.253351 0.941655,-1.05484 1.652537,-1.207079 0.705937,0.06533 0.939349,1.180673 0.323394,1.529628 -1.392538,1.338516 -3.570983,1.491101 -5.31205,0.824507 -1.267928,-0.380824 -2.508807,-0.859162 -3.721133,-1.386769 -0.549974,-0.337079 -1.312037,-0.190219 -1.76898,-0.702559 -0.196066,-0.726435 0.900398,-1.206545 1.368197,-0.679113 1.084086,0.89403 2.569943,1.010449 3.699918,1.829965 2.398352,1.464568 4.302227,3.785746 5.132968,6.491951 0.379589,0.554162 0.322085,1.414135 -0.224934,1.839093 -0.832934,0.264029 -1.64829,-0.380176 -2.015143,-1.090921 -0.889237,-1.264149 -1.352214,-2.809154 -1.379592,-4.351957 -0.6657,-0.254344 0.301722,-1.450371 0.586273,-0.678936 z"
       id="path3099"
       inkscape:connector-curvature="0" />
    <path
       style="fill:#000000"
       d="M 45.636928,10.035259 C 47.389868,9.3031993 47.779902,6.8736673 46.29943,5.902011 44.7972,5.4523944 43.172576,6.2509063 42.042675,7.1909922 39.481409,9.1687108 38.075851,11.964556 36.03609,14.311678 c -0.468245,0.582479 -0.792354,1.376856 -1.628174,1.612538 -0.911132,0.0091 -1.10254,-1.256367 -0.31538,-1.627671 1.536597,-1.496449 2.719324,-3.228918 3.969075,-4.9064551 1.243433,-1.584504 2.744331,-3.1891916 4.819179,-3.8931484 1.91457,-0.5990819 4.235619,-0.2824947 5.480533,1.1044098 0.913046,1.1286516 0.389932,3.1182059 -1.215823,3.6540697 -0.513998,0.154696 -1.128085,0.116179 -1.508569,-0.220162 z"
       id="path3103"
       inkscape:connector-curvature="0" />
    <path
       style="fill:#000000"
       d="m 33.239705,9.8671552 c 2.69099,1.1990908 5.470439,2.1924728 8.297534,3.0123438 -0.13204,0.441704 -0.705387,0.657723 -1.105015,0.44051 -2.741827,-0.784697 -5.387689,-1.862205 -8.040363,-2.903207 -0.07659,-0.4582867 0.499868,-0.6155433 0.847834,-0.5496728 z"
       id="path3107"
       inkscape:connector-curvature="0" />
    <path
       style="fill:#000000"
       d="m 46.960092,35.416529 c -0.541463,0.520561 -0.971507,1.219434 -1.19059,1.99836 -0.04801,0.677066 0.598622,1.204991 1.129325,0.928562 1.005237,-0.287719 1.936153,-1.01033 2.591348,-1.988253 0.200127,-0.225135 0.569084,-0.02875 0.543419,0.289246 -0.262102,0.576057 -0.783134,0.888291 -1.09843,1.414669 -0.358032,0.443188 -0.68289,0.950907 -0.837331,1.537136 0.04251,0.307712 0.306122,0.462988 0.371008,0.757663 -0.163169,0.268407 -0.557038,0.219037 -0.641888,-0.0794 -0.406472,-0.347998 -0.417514,-1.171223 -0.02213,-1.594765 0.349299,-0.580596 0.814826,-1.042394 1.201997,-1.585053 0.247883,-0.185856 0.319012,-0.573132 0.572961,-0.750773 0.27358,-0.01658 0.36964,0.501529 0.122139,0.658558 -0.809738,1.003791 -1.966891,1.67513 -3.109404,1.581896 -0.467494,-0.03613 -0.933085,-0.209145 -1.281217,-0.570201 -0.287547,-0.465895 -0.194916,-1.206788 0.18745,-1.613904 0.271479,-0.465804 0.614855,-0.957274 1.097347,-1.082192 0.127911,-9.23e-4 0.24564,0.05534 0.364005,0.09844 z"
       id="path3109"
       inkscape:connector-curvature="0" />
    <path
       style="fill:#000000"
       d="m 42.359026,15.004551 c 2.257341,2.433955 4.596703,4.796145 7.094392,6.982591 0.669211,0.182264 0.845612,1.217094 0.28037,1.618002 -0.56137,0.02503 -0.855162,-0.533603 -1.241571,-0.841781 -2.264931,-1.889976 -4.145127,-4.184524 -6.307935,-6.183791 -0.352395,-0.445478 0.02402,-0.979381 0.153139,-1.431924 l 0.01318,-0.07116 0.0082,-0.07195 0,0 z"
       id="path3111"
       inkscape:connector-curvature="0" />
    <path
       style="fill:#000000"
       d="m 40.752161,29.380349 c -0.773252,0.825867 -1.386082,1.76594 -2.024608,2.685604 -0.268153,0.204329 -0.972411,-0.229001 -0.926857,-0.570505 0.23299,-0.398328 0.850295,-0.467245 1.12474,-0.832525 0.916238,-0.694366 2.404937,-0.972564 4.019484,-0.413096 1.685566,0.631483 3.126035,2.40105 2.87313,3.631609 -0.149181,0.905536 -0.626477,1.661976 -1.297324,2.247969 -0.311442,0.146949 -1.02154,-0.252202 -0.95792,-0.611754 0.05798,-0.44712 0.576569,-0.603845 0.696407,-1.016257 0.383875,-0.703108 0.466805,-1.668033 -0.166848,-2.641278 -0.442195,-0.632323 -1.181917,-1.195005 -1.953072,-1.47024 -1.105715,-0.01056 -1.794583,0.563519 -2.515138,1.023962 -0.367386,0.258772 -0.723684,0.54186 -1.224233,0.660219 -0.44835,-0.03539 -0.890144,-0.666617 -0.582283,-0.8506 0.592842,-0.654149 0.998054,-1.443294 1.65941,-2.047159 0.335021,-0.160946 0.850609,0.12078 1.275097,0.204086 z"
       id="path3113"
       inkscape:connector-curvature="0" />
    <path
       style="fill:#000000"
       d="m 49.825294,42.242664 c 1.017279,0.08411 2.053605,0.03587 3.043175,-0.232597 -0.351659,-0.249287 -0.381611,-0.821855 -0.828456,-0.954889 -1.064657,-0.295079 -2.277401,-0.045 -3.108354,0.707807 -0.552094,0.739336 -0.347205,1.876304 0.32799,2.462175 0.584499,0.606298 1.418412,0.904193 2.238436,0.951213 0.347847,0.116012 0.717606,-0.112967 1.060437,0.03641 0.235855,0.294296 -0.199993,0.74076 -0.501119,0.546742 -0.799928,-0.120464 -1.649301,-0.01288 -2.400861,-0.375658 -0.804345,-0.330442 -1.567064,-0.959531 -1.795925,-1.846292 -0.189181,-0.827647 0.282576,-1.726351 1.026401,-2.083225 1.063844,-0.632737 2.285787,-1.113018 3.536599,-1.000242 0.459632,0.06071 0.966393,0.385825 0.989452,0.902605 0.02101,0.451685 -0.32001,0.832539 -0.712007,0.991726 -0.555469,0.271903 -1.179351,0.314525 -1.781356,0.391008 -0.37136,-0.05357 -0.750372,0.217194 -1.109289,0.04993 -0.187771,-0.110505 -0.304696,-0.534077 0.01487,-0.546707 z"
       id="path3115"
       inkscape:connector-curvature="0" />
    <path
       style="fill:#000000"
       d="m 53.573585,46.420722 c -0.606862,0.894396 -1.133836,1.844377 -1.559834,2.83889 0.582728,0.22721 0.698519,1.077613 1.368335,1.153542 1.580806,-0.0087 3.007981,-1.072559 4.610967,-0.810834 1.855666,0.377345 2.950647,2.733182 2.071129,4.411129 -0.644121,1.694526 -1.626142,3.248396 -2.812369,4.611472 -0.668782,-0.09381 -0.604078,-1.251248 0.05187,-1.309891 1.252734,-0.676801 1.984554,-2.021705 2.351765,-3.35579 0.255128,-1.505903 -0.998602,-3.038561 -2.508507,-3.125224 -1.436585,-0.171954 -2.644275,0.954759 -4.074643,0.83659 -0.704877,-0.01844 -1.325351,-0.554109 -1.461882,-1.247022 -0.157207,-0.595006 0.0098,-1.232632 0.367396,-1.7201 0.540951,-1.055322 1.00858,-2.151997 1.647386,-3.153965 0.538689,0.161058 -0.217134,0.567812 -0.0516,0.871203 z"
       id="path3117"
       inkscape:connector-curvature="0" />
    <path
       style="fill:#000000"
       d="m 49.792183,48.594505 c -0.8453,-1.314863 -1.867548,-2.551262 -3.171192,-3.132614 -0.61343,0.347912 -1.393418,0.204252 -1.904016,0.824382 -0.409887,0.838929 -0.248846,1.989041 0.298956,2.675834 0.648739,1.198785 1.295623,2.52466 1.290886,4.013398 -0.200959,1.76722 -1.778826,3.06799 -3.180673,2.6256 -1.892813,-0.221894 -3.834541,-0.734044 -5.42233,-2.089029 0.588482,-0.433648 1.396515,-0.154747 1.802289,0.495679 1.370176,1.337212 3.457079,1.5337 4.912259,0.289089 0.847429,-1.067314 0.855631,-2.928517 0.06673,-4.045269 -0.532067,-1.082086 -1.159095,-2.163432 -1.299452,-3.449603 0.1316,-0.944032 0.892116,-1.671899 1.664835,-1.61682 1.862619,-0.429253 3.890708,0.411114 5.141566,2.172424 0.732295,-0.0855 0.45079,1.676397 -0.199854,1.236929 z"
       id="path3119"
       inkscape:connector-curvature="0" />
  </g>
</svg>
