<?xml version="1.0" encoding="UTF-8" standalone="no"?>
<!-- Created with Inkscape (http://www.inkscape.org/) -->

<svg
   xmlns:dc="http://purl.org/dc/elements/1.1/"
   xmlns:cc="http://creativecommons.org/ns#"
   xmlns:rdf="http://www.w3.org/1999/02/22-rdf-syntax-ns#"
   xmlns:svg="http://www.w3.org/2000/svg"
   xmlns="http://www.w3.org/2000/svg"
   xmlns:sodipodi="http://sodipodi.sourceforge.net/DTD/sodipodi-0.dtd"
   xmlns:inkscape="http://www.inkscape.org/namespaces/inkscape"
   width="64px"
   height="64px"
   id="svg3027"
   version="1.1"
   inkscape:version="0.48.5 r10040"
   sodipodi:docname="moto.svg">
  <defs
     id="defs3029" />
  <sodipodi:namedview
     id="base"
     pagecolor="#ffffff"
     bordercolor="#666666"
     borderopacity="1.0"
     inkscape:pageopacity="0.0"
     inkscape:pageshadow="2"
     inkscape:zoom="12.648459"
     inkscape:cx="32.272727"
     inkscape:cy="31.363636"
     inkscape:current-layer="layer1"
     showgrid="true"
     inkscape:document-units="px"
     inkscape:grid-bbox="true"
     inkscape:window-width="1920"
     inkscape:window-height="1018"
     inkscape:window-x="-8"
     inkscape:window-y="-8"
     inkscape:window-maximized="1" />
  <metadata
     id="metadata3032">
    <rdf:RDF>
      <cc:Work
         rdf:about="">
        <dc:format>image/svg+xml</dc:format>
        <dc:type
           rdf:resource="http://purl.org/dc/dcmitype/StillImage" />
        <dc:title></dc:title>
      </cc:Work>
    </rdf:RDF>
  </metadata>
  <g
     id="layer1"
     inkscape:label="Layer 1"
     inkscape:groupmode="layer">
    <path
       style="fill:#000000"
       d="M 2.2324381,11.743921 C 1.973826,13.260034 2.0201332,14.837585 1.4926776,16.300426 1.2220131,16.699526 0.48980971,16.29256 0.68392815,15.851943 1.2667576,14.643772 1.8375215,13.362631 2.8868089,12.479451 3.3621157,11.802653 4.5970092,12.033663 4.7944286,12.837156 5.3127533,14.114689 5.2616213,15.61104 4.6534329,16.848751 4.346557,17.240558 3.6054175,16.823102 3.7831818,16.357579 4.2620437,14.527601 5.6266385,12.918414 7.4151819,12.260784 8.1589231,12.08626 8.9442408,12.705786 9.0119786,13.452912 9.2136559,14.253561 9.332028,15.081939 9.2849324,15.908806 9.1066802,16.39016 8.2464595,16.203063 8.284937,15.690943 8.2191711,14.829244 8.1367233,13.895088 7.5674889,13.1992 7.1013671,12.74671 6.2119256,12.957205 5.9840375,13.561129 5.4531305,14.237443 5.0850905,15.033691 4.8716209,15.864538 5.1019153,16.258759 4.6689962,16.843311 4.2230412,16.686981 3.8706505,16.389798 3.9415466,15.866359 4.086576,15.481093 4.2703653,14.667931 4.0167766,13.823717 3.6194306,13.113489 3.1819344,12.816939 2.5772845,13.207435 2.5060366,13.689695 2.1745246,14.536759 1.7577692,15.34667 1.400795,16.18276 1.0781631,16.531838 0.41739832,16.035804 0.66253329,15.628553 1.2220512,14.559397 0.81202785,13.257778 1.3852161,12.192987 c 0.2002704,-0.274082 0.5661761,-0.30223 0.847222,-0.449066 z"
       id="path3091"
       inkscape:connector-curvature="0" />
    <path
       style="fill:#000000"
       d="m 12.686397,9.7429099 c 0.42865,0.1983944 0.911016,0.2680531 1.315634,0.5203621 -0.02772,0.116899 -0.17107,0.124135 -0.243861,0.201146 -0.233409,0.150455 -0.466818,0.30091 -0.700227,0.451365 -0.407884,-0.256288 -0.884275,-0.359388 -1.331517,-0.523642 0.319992,-0.216408 0.639972,-0.4328337 0.959971,-0.6492311 z"
       id="path3093"
       inkscape:connector-curvature="0" />
    <path
       style="fill:#000000"
       d="m 12.370439,13.186967 c -0.05122,1.424644 0.02878,2.85191 -0.04498,4.275486 0.0067,0.104813 -0.08736,0.137832 -0.164406,0.173299 -0.296696,0.146876 -0.593393,0.293752 -0.890089,0.440628 0.122029,-1.079466 0.08513,-2.167742 0.09448,-3.251821 -0.002,-0.372235 -0.0072,-0.744465 -0.01768,-1.116564 0.340899,-0.173663 0.681742,-0.347435 1.022676,-0.521028 z"
       id="path3095"
       inkscape:connector-curvature="0" />
    <path
       style="fill:#000000"
       d="m 18.78631,12.745108 c -0.176606,2.018537 -0.521183,4.023591 -0.564846,6.052684 -0.17763,0.337172 -0.599925,0.515775 -0.967032,0.421308 -0.291888,-0.611723 0.01146,-1.274206 0.126013,-1.889605 0.488515,-1.753199 1.823315,-3.264955 3.533191,-3.908436 0.658007,-0.119953 1.340312,0.393867 1.442726,1.047517 0.450005,1.336709 0.240423,2.761904 0.23787,4.141797 0.09712,0.435629 -0.306035,0.907366 -0.754509,0.859222 -0.362795,-0.232024 -0.348859,-0.722417 -0.281091,-1.097139 0.150079,-1.312151 0.161387,-2.726696 -0.497862,-3.914182 -0.270725,-0.424873 -0.991082,-0.442864 -1.26395,-0.01107 -1.059638,1.085463 -1.558644,2.596417 -1.687872,4.082143 -0.0056,0.278044 -0.128941,0.621368 -0.452954,0.637138 -0.419704,0.08151 -0.572383,-0.455998 -0.473364,-0.776954 0.06645,-0.427117 0.164258,-0.850814 0.172556,-1.284641 0.129339,-1.208024 0.256468,-2.416291 0.390494,-3.623808 0.156844,-0.447013 0.674234,-0.531145 1.04063,-0.735974 z"
       id="path3097"
       inkscape:connector-curvature="0" />
    <path
       style="fill:#000000"
       d="m 28.024248,17.266028 c -1.242197,0.144296 -2.506176,0.390199 -3.601779,1.021955 -0.159499,0.503984 -0.03064,1.254304 0.553335,1.401022 0.732797,0.0739 1.253227,-0.554533 1.689401,-1.048888 1.736031,-1.959627 2.748789,-4.485318 3.109507,-7.061204 -0.225569,-0.547037 0.587462,-1.140861 1.018004,-0.705506 0.312676,0.52027 -0.0213,1.10763 -0.231063,1.597709 -0.720133,1.864728 -0.910647,3.959892 -0.384008,5.899506 0.277104,0.511125 0.962786,0.660962 1.163185,1.228457 0.02205,0.586579 -0.864619,0.896878 -1.215655,0.428252 -1.242829,-1.000996 -1.600343,-2.77344 -1.241574,-4.273904 0.175762,-1.08158 0.434116,-2.151325 0.735791,-3.202867 0.216733,-0.487429 0.01526,-1.097521 0.385182,-1.527208 0.572786,-0.238263 1.082371,0.610947 0.701275,1.051155 -0.614869,0.985225 -0.551235,2.217615 -1.100297,3.232593 -0.940738,2.125034 -2.634455,3.935188 -4.757549,4.905174 -0.41237,0.370623 -1.121398,0.414891 -1.527189,0.01095 -0.304811,-0.655818 0.134585,-1.393818 0.676296,-1.770642 0.938202,-0.86461 2.15151,-1.409106 3.409567,-1.595707 0.136745,-0.573648 1.217681,0.09345 0.617571,0.409153 z"
       id="path3099"
       inkscape:connector-curvature="0" />
    <path
       style="fill:#000000"
       d="M 7.2402167,31.816549 C 7.7251181,30.526159 6.4728266,28.975881 5.1092043,29.179662 4.0473809,29.685317 3.670007,30.948144 3.6384267,32.04083 c -0.1635695,2.391483 0.7731267,4.657113 1.1061819,6.991934 0.1026675,0.560319 0.4084815,1.166167 0.109242,1.71826 C 4.3789507,41.214768 3.518636,40.605889 3.7108313,40.002714 3.6229741,38.39525 3.2069088,36.834393 2.859146,35.27041 2.5638798,33.761451 2.3922449,32.111638 3.0637264,30.674862 c 0.649914,-1.297648 2.0636156,-2.289631 3.5522277,-2.143421 1.1586697,0.169351 2.0767722,1.541429 1.5517372,2.648391 -0.1781639,0.344953 -0.5250435,0.632617 -0.9274746,0.636717 z"
       id="path3103"
       inkscape:connector-curvature="0" />
    <path
       style="fill:#000000"
       d="m 1.7690842,34.740052 c 2.4308347,0.112999 4.8686885,0.04113 7.2916741,-0.178556 0.029558,0.379533 -0.3481574,0.718194 -0.7207717,0.67132 -2.3468025,0.221096 -4.7066983,0.188059 -7.0609886,0.185155 -0.1953083,-0.329534 0.2022793,-0.623922 0.4900862,-0.677919 z"
       id="path3107"
       inkscape:connector-curvature="0" />
    <path
       style="fill:#000000"
       d="m 12.441083,37.03394 c -0.309181,1.172718 -0.286413,2.441332 0.122736,3.587213 0.565694,0.849329 2.015624,0.806956 2.538436,-0.06627 1.212043,-1.375353 1.905645,-3.187931 1.952597,-5.018127 0.0835,-0.472111 0.812256,-0.62015 1.073347,-0.218036 0.154983,0.95053 -0.319901,1.856085 -0.290065,2.802718 -0.111385,0.892368 -0.11319,1.826804 0.210134,2.67845 0.351971,0.319739 0.886708,0.231651 1.259416,0.512943 0.01176,0.485165 -0.615603,0.832545 -1.021288,0.567376 -0.926609,0.0075 -1.716787,-0.953612 -1.531854,-1.861235 -0.03065,-1.045707 0.221774,-2.070788 0.282631,-3.110684 0.190857,-0.474902 -0.06831,-1.005693 0.139215,-1.477139 0.387916,-0.301354 1.016616,0.211755 0.799227,0.652207 -0.250561,2.01994 -1.326014,4.004981 -3.09863,5.071685 -0.723417,0.438865 -1.572722,0.71404 -2.425563,0.646085 -0.862051,-0.254216 -1.421934,-1.224913 -1.240743,-2.099731 -0.03752,-0.829938 0.0068,-1.764249 0.60102,-2.408817 0.187779,-0.132846 0.414291,-0.187648 0.629384,-0.258638 z"
       id="path3109"
       inkscape:connector-curvature="0" />
    <path
       style="fill:#000000"
       d="m 24.687355,31.285743 c -0.188923,2.736664 -0.2883,5.482531 -0.192425,8.225206 0.26855,0.507557 -0.254519,1.197138 -0.815231,1.08098 -0.33236,-0.325546 -0.162213,-0.817949 -0.195149,-1.225317 -0.142739,-2.434867 0.175453,-4.864824 0.156207,-7.29946 0.06892,-0.46412 0.602983,-0.537087 0.948355,-0.713792 l 0.05029,-0.03209 0.04795,-0.03553 0,0 z"
       id="path3111"
       inkscape:connector-curvature="0" />
    <path
       style="fill:#000000"
       d="m 29.027743,35.863514 c -0.173472,1.433571 -0.184332,2.879449 -0.222177,4.321061 -0.09655,0.408124 -0.780248,0.427892 -0.899891,0.02579 -0.01402,-0.594093 0.386272,-1.098165 0.415842,-1.685241 0.331583,-1.390378 1.247265,-2.72748 2.62224,-3.243514 1.456478,-0.487314 3.246563,0.430282 3.615729,1.940927 0.297432,1.085961 0.299738,2.238397 0.09137,3.340563 -0.152209,0.375989 -0.824828,0.436896 -0.939864,0.0026 -0.157815,-0.525291 0.13465,-1.055962 0.03541,-1.586638 -0.04386,-1.029615 -0.413868,-2.13392 -1.287708,-2.748885 -0.589031,-0.378329 -1.354843,-0.474198 -2.015126,-0.236421 -0.776413,0.757566 -1.002652,1.859317 -1.301388,2.859872 -0.141669,0.53619 -0.264815,1.091045 -0.561692,1.567542 -0.328625,0.273424 -0.916888,-0.103992 -0.783601,-0.51766 0.123701,-1.121843 0.05658,-2.259622 0.250399,-3.374573 0.16246,-0.40757 0.647247,-0.460567 0.980462,-0.665428 z"
       id="path3113"
       inkscape:connector-curvature="0" />
    <path
       style="fill:#000000"
       d="m 39.586719,35.5367 c 1.345413,0.108962 2.716015,0.04648 4.024779,-0.301311 -0.465089,-0.322932 -0.504702,-1.064649 -1.095682,-1.236985 -1.408073,-0.382251 -3.011998,-0.05829 -4.110981,0.916909 -0.730176,0.957753 -0.459201,2.430606 0.433786,3.189557 0.773034,0.785413 1.875933,1.171313 2.960464,1.232223 0.460048,0.150279 0.949076,-0.146333 1.402489,0.04717 0.311933,0.381236 -0.264502,0.959596 -0.662758,0.708262 -1.057953,-0.156056 -2.181298,-0.01667 -3.17528,-0.486636 -1.063794,-0.428062 -2.072534,-1.242998 -2.375219,-2.391728 -0.250202,-1.072154 0.373724,-2.236355 1.357477,-2.698657 1.406997,-0.819662 3.023088,-1.441829 4.677361,-1.295738 0.60789,0.07865 1.278112,0.499808 1.308608,1.169256 0.02779,0.585123 -0.423232,1.078491 -0.941669,1.284704 -0.734642,0.35223 -1.559764,0.407444 -2.35595,0.506523 -0.491146,-0.06939 -0.992411,0.281355 -1.4671,0.06467 -0.248338,-0.143155 -0.402978,-0.691856 0.01967,-0.708217 z"
       id="path3115"
       inkscape:connector-curvature="0" />
    <path
       style="fill:#000000"
       d="m 50.742019,31.47838 c -0.843038,0.291925 -1.660315,0.660079 -2.432383,1.107565 0.275545,0.438125 -0.06562,1.057878 0.342179,1.438943 1.054818,0.775026 2.526313,0.776174 3.462906,1.741057 1.047668,1.16617 0.617061,3.265447 -0.792417,3.941039 -1.261195,0.802828 -2.677788,1.345712 -4.136279,1.66152 -0.398323,-0.392379 0.213751,-1.126097 0.678496,-0.840906 1.165272,0.171028 2.312851,-0.3572 3.212807,-1.058356 0.909948,-0.87018 0.830329,-2.503312 -0.130479,-3.306413 -0.870148,-0.823306 -2.226691,-0.67446 -3.119152,-1.459118 -0.459365,-0.360348 -0.608334,-1.021172 -0.358384,-1.546986 0.18807,-0.471259 0.61251,-0.810609 1.089868,-0.956425 0.878358,-0.430934 1.728321,-0.925442 2.645476,-1.27275 0.278803,0.372613 -0.42347,0.268376 -0.462638,0.55083 z"
       id="path3117"
       inkscape:connector-curvature="0" />
    <path
       style="fill:#000000"
       d="m 61.028527,31.07579 c -1.221415,-0.242833 -2.528485,-0.336435 -3.716875,0.107209 -0.260461,0.560269 -0.873349,0.94119 -0.93126,1.594498 0.117483,0.717391 0.782619,1.27249 1.4947,1.336355 1.028567,0.293649 2.116932,0.660278 2.829257,1.505143 0.709377,1.118649 0.234515,2.789342 -0.955546,3.369776 -1.426386,0.996067 -3.026402,1.856945 -4.784787,2.031377 0.201854,-0.593981 0.899304,-0.915026 1.494877,-0.787571 1.598115,-0.05554 3.147615,-1.180983 3.56393,-2.747217 0.0778,-1.10583 -0.811149,-2.16342 -1.898012,-2.327614 -0.891125,-0.296774 -1.848102,-0.536862 -2.564219,-1.181174 -0.362035,-0.611939 -0.181662,-1.474275 0.383576,-1.90099 1.092331,-1.346478 2.910333,-2.072884 4.629118,-1.817842 0.469484,-0.48227 1.120137,0.681086 0.455241,0.81805 z"
       id="path3119"
       inkscape:connector-curvature="0" />
  </g>
</svg>
